<mxfile host="app.diagrams.net" agent="Mozilla/5.0 (Windows NT 10.0; Win64; x64) AppleWebKit/537.36 (KHTML, like Gecko) Chrome/141.0.0.0 Safari/537.36" version="28.2.8">
  <diagram name="Page-1" id="aaaa8250-4180-3840-79b5-4cada1eebb92">
    <mxGraphModel dx="1617" dy="805" grid="1" gridSize="10" guides="1" tooltips="1" connect="1" arrows="1" fold="1" page="1" pageScale="1" pageWidth="850" pageHeight="1100" background="#ffffff" math="0" shadow="1" adaptiveColors="auto">
      <root>
        <mxCell id="0" />
        <mxCell id="1" parent="0" />
        <mxCell id="tyKzm7KRj9yqGzWwmETo-35" style="edgeStyle=orthogonalEdgeStyle;rounded=1;orthogonalLoop=1;jettySize=auto;html=1;snapToPoint=0;textShadow=1;convertToSvg=0;flowAnimation=1;" edge="1" parent="1" source="tyKzm7KRj9yqGzWwmETo-26" target="tyKzm7KRj9yqGzWwmETo-27">
          <mxGeometry relative="1" as="geometry" />
        </mxCell>
        <mxCell id="tyKzm7KRj9yqGzWwmETo-26" value="" style="outlineConnect=0;dashed=0;verticalLabelPosition=bottom;verticalAlign=top;align=center;html=1;shape=mxgraph.aws3.s3;fillColor=#E05243;gradientColor=none;rounded=1;snapToPoint=0;" vertex="1" parent="1">
          <mxGeometry x="90" y="180" width="110" height="110" as="geometry" />
        </mxCell>
        <mxCell id="tyKzm7KRj9yqGzWwmETo-27" value="LAMBDA" style="outlineConnect=0;dashed=0;verticalLabelPosition=bottom;verticalAlign=top;align=center;html=1;shape=mxgraph.aws3.lambda;fillColor=#F58534;gradientColor=none;rounded=1;snapToPoint=0;textShadow=1;convertToSvg=0;" vertex="1" parent="1">
          <mxGeometry x="440" y="188.5" width="76.5" height="93" as="geometry" />
        </mxCell>
        <mxCell id="tyKzm7KRj9yqGzWwmETo-30" value="&lt;font style=&quot;font-size: 14px;&quot;&gt;S3&lt;/font&gt;" style="text;html=1;whiteSpace=wrap;strokeColor=none;fillColor=none;align=center;verticalAlign=middle;rounded=1;snapToPoint=0;textShadow=1;convertToSvg=0;" vertex="1" parent="1">
          <mxGeometry x="120" y="290" width="60" height="30" as="geometry" />
        </mxCell>
        <mxCell id="tyKzm7KRj9yqGzWwmETo-34" style="edgeStyle=orthogonalEdgeStyle;rounded=1;orthogonalLoop=1;jettySize=auto;html=1;snapToPoint=0;textShadow=1;convertToSvg=0;" edge="1" parent="1" source="tyKzm7KRj9yqGzWwmETo-31" target="tyKzm7KRj9yqGzWwmETo-26">
          <mxGeometry relative="1" as="geometry" />
        </mxCell>
        <mxCell id="tyKzm7KRj9yqGzWwmETo-36" value="AWS OU TRANSFER" style="edgeLabel;html=1;align=center;verticalAlign=middle;resizable=0;points=[];rounded=1;snapToPoint=0;textShadow=1;convertToSvg=0;" vertex="1" connectable="0" parent="tyKzm7KRj9yqGzWwmETo-34">
          <mxGeometry x="0.0264" y="-1" relative="1" as="geometry">
            <mxPoint y="1" as="offset" />
          </mxGeometry>
        </mxCell>
        <mxCell id="tyKzm7KRj9yqGzWwmETo-31" value="ARQUIVO" style="strokeWidth=2;html=1;shape=mxgraph.flowchart.document2;whiteSpace=wrap;size=0.25;rounded=1;snapToPoint=0;textShadow=1;convertToSvg=0;" vertex="1" parent="1">
          <mxGeometry x="95" y="450" width="100" height="60" as="geometry" />
        </mxCell>
        <mxCell id="tyKzm7KRj9yqGzWwmETo-33" style="edgeStyle=orthogonalEdgeStyle;rounded=1;orthogonalLoop=1;jettySize=auto;html=1;flowAnimation=1;shadow=0;snapToPoint=0;textShadow=1;convertToSvg=0;" edge="1" parent="1" source="tyKzm7KRj9yqGzWwmETo-32" target="tyKzm7KRj9yqGzWwmETo-31">
          <mxGeometry relative="1" as="geometry" />
        </mxCell>
        <mxCell id="tyKzm7KRj9yqGzWwmETo-32" value="Actor" style="shape=umlActor;verticalLabelPosition=bottom;verticalAlign=top;html=1;outlineConnect=0;rounded=1;snapToPoint=0;textShadow=1;convertToSvg=0;" vertex="1" parent="1">
          <mxGeometry x="440" y="440" width="60" height="80" as="geometry" />
        </mxCell>
        <mxCell id="tyKzm7KRj9yqGzWwmETo-37" value="DYNAMO" style="outlineConnect=0;dashed=0;verticalLabelPosition=bottom;verticalAlign=top;align=center;html=1;shape=mxgraph.aws3.dynamo_db;fillColor=#2E73B8;gradientColor=none;rounded=1;snapToPoint=0;textShadow=1;convertToSvg=0;" vertex="1" parent="1">
          <mxGeometry x="720" y="194.5" width="72" height="81" as="geometry" />
        </mxCell>
        <mxCell id="tyKzm7KRj9yqGzWwmETo-38" style="edgeStyle=orthogonalEdgeStyle;rounded=1;orthogonalLoop=1;jettySize=auto;html=1;entryX=0;entryY=0.5;entryDx=0;entryDy=0;entryPerimeter=0;snapToPoint=0;textShadow=1;convertToSvg=0;flowAnimation=1;" edge="1" parent="1" source="tyKzm7KRj9yqGzWwmETo-27" target="tyKzm7KRj9yqGzWwmETo-37">
          <mxGeometry relative="1" as="geometry" />
        </mxCell>
      </root>
    </mxGraphModel>
  </diagram>
</mxfile>
